<svg xmlns="http://www.w3.org/2000/svg" viewBox="0 0 720 280" fill="none">
  <defs>
    <filter id="sketch" x="-2%" y="-2%" width="104%" height="104%">
      <feTurbulence type="fractalNoise" baseFrequency="0.018" numOctaves="2" seed="22" result="n"/>
      <feDisplacementMap in="SourceGraphic" in2="n" scale="0.9" xChannelSelector="R" yChannelSelector="G"/>
    </filter>
  </defs>
  <rect width="720" height="280" rx="16" fill="#0b0b10"/>
  <rect x="0.5" y="0.5" width="719" height="279" rx="15.5" stroke="rgba(255,255,255,0.06)"/>
  <g opacity="0.18" fill="#64748b">
    <circle cx="32" cy="28" r="0.8"/><circle cx="56" cy="28" r="0.8"/><circle cx="80" cy="28" r="0.8"/>
    <circle cx="640" cy="252" r="0.8"/><circle cx="664" cy="252" r="0.8"/><circle cx="688" cy="252" r="0.8"/>
  </g>
  <text x="28" y="36" fill="#475569" font-family="Georgia, serif" font-size="12" font-style="italic"> GPU partitioning </text>
  <g filter="url(#sketch)" stroke-linecap="round" stroke-linejoin="round">
<rect x="292" y="76" width="136" height="96" rx="8" stroke="#8b5cf6" stroke-width="1.8" fill="rgba(139,92,246,0.07)"/>
    <line x1="308" y1="120" x2="412" y2="120" stroke="#8b5cf6" stroke-width="1.2" opacity="0.45"/>
    <line x1="308" y1="140" x2="412" y2="140" stroke="#8b5cf6" stroke-width="1.2" opacity="0.45"/>
    <rect x="308" y="88" width="48" height="28" rx="4" stroke="#22c55e" stroke-width="1.4" fill="rgba(34,197,94,0.08)"/>
    <rect x="364" y="88" width="48" height="28" rx="4" stroke="#22c55e" stroke-width="1.4" fill="rgba(34,197,94,0.08)"/>
    <rect x="308" y="148" width="48" height="28" rx="4" stroke="#3b82f6" stroke-width="1.4" fill="rgba(59,130,246,0.08)"/>
    <rect x="364" y="148" width="48" height="28" rx="4" stroke="#3b82f6" stroke-width="1.4" fill="rgba(59,130,246,0.08)"/>
    <ellipse cx="128" cy="128" rx="36" ry="26" stroke="#f59e0b" stroke-width="1.6" fill="rgba(245,158,11,0.05)"/>
    <path d="M168 128 H252" stroke="#f59e0b" stroke-width="1.5" opacity="0.55"/>
    <path d="M436 128 H520" stroke="#f59e0b" stroke-width="1.5" opacity="0.55"/>
    <ellipse cx="592" cy="128" rx="36" ry="26" stroke="#f59e0b" stroke-width="1.6" fill="rgba(245,158,11,0.05)"/>
  </g>
  <g font-family="ui-monospace, SFMono-Regular, Menlo, monospace" fill="#ffffff">
    <text x="312" y="106" font-size="10" font-weight="500" opacity="1">A100 / H100</text>
    <text x="316" y="128" font-size="9" font-weight="500" opacity="1">MIG-1</text>
    <text x="372" y="128" font-size="9" font-weight="500" opacity="1">MIG-2</text>
    <text x="100" y="132" font-size="9" font-weight="500" opacity="1">Job A</text>
    <text x="564" y="132" font-size="9" font-weight="500" opacity="1">Job B</text>
  </g>

  <text x="228" y="248" fill="#64748b" font-family="Georgia, serif" font-size="11" font-style="italic" opacity="0.5">MIG · time-slice · DCGM metrics</text>
</svg>
