<svg xmlns="http://www.w3.org/2000/svg" viewBox="0 0 720 280" fill="none">
  <defs>
    <filter id="sketch" x="-2%" y="-2%" width="104%" height="104%">
      <feTurbulence type="fractalNoise" baseFrequency="0.018" numOctaves="2" seed="6" result="n"/>
      <feDisplacementMap in="SourceGraphic" in2="n" scale="0.9" xChannelSelector="R" yChannelSelector="G"/>
    </filter>
  </defs>
  <rect width="720" height="280" rx="16" fill="#0b0b10"/>
  <rect x="0.5" y="0.5" width="719" height="279" rx="15.5" stroke="rgba(255,255,255,0.06)"/>
  <g opacity="0.18" fill="#64748b">
    <circle cx="32" cy="28" r="0.8"/><circle cx="56" cy="28" r="0.8"/><circle cx="80" cy="28" r="0.8"/>
    <circle cx="640" cy="252" r="0.8"/><circle cx="664" cy="252" r="0.8"/><circle cx="688" cy="252" r="0.8"/>
  </g>
  <text x="28" y="36" fill="#475569" font-family="Georgia, serif" font-size="12" font-style="italic"> multi-tenant isolation </text>
  <g filter="url(#sketch)" stroke-linecap="round" stroke-linejoin="round">
<rect x="128" y="76" width="464" height="132" rx="12" stroke="#64748b" stroke-width="1.6" fill="rgba(100,116,139,0.03)"/>
    <rect x="156" y="112" width="120" height="76" rx="8" stroke="#3b82f6" stroke-width="1.6" fill="rgba(59,130,246,0.06)"/>
    <rect x="300" y="112" width="120" height="76" rx="8" stroke="#22c55e" stroke-width="1.6" fill="rgba(34,197,94,0.06)"/>
    <rect x="444" y="112" width="120" height="76" rx="8" stroke="#f59e0b" stroke-width="1.6" fill="rgba(245,158,11,0.06)"/>
    <path d="M216 112 V96 M360 112 V96 M504 112 V96" stroke="#64748b" stroke-width="1.3" opacity="0.4"/>
    <circle cx="216" cy="88" r="10" stroke="#64748b" stroke-width="1.3" fill="none"/>
    <circle cx="360" cy="88" r="10" stroke="#64748b" stroke-width="1.3" fill="none"/>
    <circle cx="504" cy="88" r="10" stroke="#64748b" stroke-width="1.3" fill="none"/>
  </g>
  <g font-family="ui-monospace, SFMono-Regular, Menlo, monospace" fill="#ffffff">
    <text x="148" y="98" font-size="10" font-weight="500" opacity="0.88">EKS cluster</text>
    <text x="180" y="156" font-size="10" font-weight="500" opacity="1">tenant-a</text>
    <text x="324" y="156" font-size="10" font-weight="500" opacity="1">tenant-b</text>
    <text x="468" y="156" font-size="10" font-weight="500" opacity="1">tenant-c</text>
    <text x="204" y="92" font-size="8" font-weight="500" opacity="0.82">RBAC</text>
  </g>

  <text x="188" y="248" fill="#64748b" font-family="Georgia, serif" font-size="11" font-style="italic" opacity="0.5">namespace · quota · onboarding runbook</text>
</svg>
