<svg xmlns="http://www.w3.org/2000/svg" viewBox="0 0 720 280" fill="none">
  <defs>
    <filter id="sketch" x="-2%" y="-2%" width="104%" height="104%">
      <feTurbulence type="fractalNoise" baseFrequency="0.018" numOctaves="2" seed="18" result="n"/>
      <feDisplacementMap in="SourceGraphic" in2="n" scale="0.9" xChannelSelector="R" yChannelSelector="G"/>
    </filter>
  </defs>
  <rect width="720" height="280" rx="16" fill="#0b0b10"/>
  <rect x="0.5" y="0.5" width="719" height="279" rx="15.5" stroke="rgba(255,255,255,0.06)"/>
  <g opacity="0.18" fill="#64748b">
    <circle cx="32" cy="28" r="0.8"/><circle cx="56" cy="28" r="0.8"/><circle cx="80" cy="28" r="0.8"/>
    <circle cx="640" cy="252" r="0.8"/><circle cx="664" cy="252" r="0.8"/><circle cx="688" cy="252" r="0.8"/>
  </g>
  <text x="28" y="36" fill="#475569" font-family="Georgia, serif" font-size="12" font-style="italic"> event-driven scale </text>
  <g filter="url(#sketch)" stroke-linecap="round" stroke-linejoin="round">
<rect x="88" y="104" width="68" height="48" rx="8" stroke="#64748b" stroke-width="1.6" fill="rgba(100,116,139,0.04)"/>
    <path d="M164 128 H208" stroke="#64748b" stroke-width="1.6" opacity="0.55"/>
    <polygon points="208,128 198,122 198,134" fill="#64748b" opacity="0.55"/>
    <rect x="228" y="96" width="76" height="64" rx="8" stroke="#f59e0b" stroke-width="1.8" fill="rgba(245,158,11,0.07)"/>
    <path d="M312 128 H356" stroke="#f59e0b" stroke-width="1.8"/>
    <polygon points="356,128 346,122 346,134" fill="#f59e0b"/>
    <rect x="376" y="88" width="88" height="80" rx="8" stroke="#3b82f6" stroke-width="1.8" fill="rgba(59,130,246,0.06)"/>
    <path d="M472 128 H516" stroke="#3b82f6" stroke-width="1.8"/>
    <polygon points="516,128 506,122 506,134" fill="#3b82f6"/>
    <ellipse cx="584" cy="128" rx="40" ry="30" stroke="#22c55e" stroke-width="1.8" fill="rgba(34,197,94,0.06)"/>
    <path d="M120 196 Q360 184 600 192" stroke="#64748b" stroke-width="1.2" opacity="0.22" stroke-dasharray="4 6"/>
  </g>
  <g font-family="ui-monospace, SFMono-Regular, Menlo, monospace" fill="#ffffff">
    <text x="108" y="132" font-size="10" font-weight="500" opacity="1">Queue</text>
    <text x="252" y="132" font-size="10" font-weight="500" opacity="1">KEDA</text>
    <text x="402" y="120" font-size="10" font-weight="500" opacity="1">HPA</text>
    <text x="402" y="148" font-size="9" font-weight="500" opacity="0.88">VPA</text>
    <text x="564" y="132" font-size="10" font-weight="500" opacity="1">Pods</text>
  </g>

  <text x="204" y="248" fill="#64748b" font-family="Georgia, serif" font-size="11" font-style="italic" opacity="0.5">lag drops · scale out · idle · scale in</text>
</svg>
