<svg xmlns="http://www.w3.org/2000/svg" viewBox="0 0 720 280" fill="none">
  <defs>
    <filter id="sketch" x="-2%" y="-2%" width="104%" height="104%">
      <feTurbulence type="fractalNoise" baseFrequency="0.018" numOctaves="2" seed="9" result="n"/>
      <feDisplacementMap in="SourceGraphic" in2="n" scale="0.9" xChannelSelector="R" yChannelSelector="G"/>
    </filter>
  </defs>
  <rect width="720" height="280" rx="16" fill="#0b0b10"/>
  <rect x="0.5" y="0.5" width="719" height="279" rx="15.5" stroke="rgba(255,255,255,0.06)"/>
  <g opacity="0.18" fill="#64748b">
    <circle cx="32" cy="28" r="0.8"/><circle cx="56" cy="28" r="0.8"/><circle cx="80" cy="28" r="0.8"/>
    <circle cx="640" cy="252" r="0.8"/><circle cx="664" cy="252" r="0.8"/><circle cx="688" cy="252" r="0.8"/>
  </g>
  <text x="28" y="36" fill="#475569" font-family="Georgia, serif" font-size="12" font-style="italic"> CNI migration </text>
  <g filter="url(#sketch)" stroke-linecap="round" stroke-linejoin="round">
<rect x="88" y="92" width="196" height="88" rx="10" stroke="#64748b" stroke-width="1.8" fill="rgba(100,116,139,0.04)"/>
    <path d="M292 136 H336" stroke="#f59e0b" stroke-width="2"/>
    <polygon points="336,136 326,130 326,142" fill="#f59e0b"/>
    <rect x="356" y="92" width="196" height="88" rx="10" stroke="#22c55e" stroke-width="1.8" fill="rgba(34,197,94,0.06)"/>
    <circle cx="144" cy="118" r="7" stroke="#64748b" stroke-width="1.3" fill="none"/>
    <circle cx="188" cy="136" r="7" stroke="#64748b" stroke-width="1.3" fill="none"/>
    <circle cx="144" cy="154" r="7" stroke="#64748b" stroke-width="1.3" fill="none"/>
    <circle cx="412" cy="118" r="7" stroke="#22c55e" stroke-width="1.3" fill="none"/>
    <circle cx="456" cy="136" r="7" stroke="#22c55e" stroke-width="1.3" fill="none"/>
    <circle cx="412" cy="154" r="7" stroke="#22c55e" stroke-width="1.3" fill="none"/>
    <path d="M152 124 Q168 132 188 136 M144 146 Q156 154 168 154" stroke="#64748b" stroke-width="1.1" opacity="0.35"/>
    <path d="M420 124 Q436 132 456 136 M412 146 Q424 154 436 154" stroke="#22c55e" stroke-width="1.1" opacity="0.35"/>
  </g>
  <g font-family="ui-monospace, SFMono-Regular, Menlo, monospace" fill="#ffffff">
    <text x="148" y="142" font-size="11" font-weight="500" opacity="1">vpc-cni</text>
    <text x="300" y="124" font-size="9" font-weight="500" opacity="0.85">migrate</text>
    <text x="416" y="142" font-size="11" font-weight="500" opacity="1">Cilium</text>
  </g>

  <text x="228" y="248" fill="#64748b" font-family="Georgia, serif" font-size="11" font-style="italic" opacity="0.5">eBPF datapath · fewer hops</text>
</svg>
