<svg xmlns="http://www.w3.org/2000/svg" viewBox="0 0 720 280" fill="none">
  <defs>
    <filter id="sketch" x="-2%" y="-2%" width="104%" height="104%">
      <feTurbulence type="fractalNoise" baseFrequency="0.018" numOctaves="2" seed="20" result="n"/>
      <feDisplacementMap in="SourceGraphic" in2="n" scale="0.9" xChannelSelector="R" yChannelSelector="G"/>
    </filter>
  </defs>
  <rect width="720" height="280" rx="16" fill="#0b0b10"/>
  <rect x="0.5" y="0.5" width="719" height="279" rx="15.5" stroke="rgba(255,255,255,0.06)"/>
  <g opacity="0.18" fill="#64748b">
    <circle cx="32" cy="28" r="0.8"/><circle cx="56" cy="28" r="0.8"/><circle cx="80" cy="28" r="0.8"/>
    <circle cx="640" cy="252" r="0.8"/><circle cx="664" cy="252" r="0.8"/><circle cx="688" cy="252" r="0.8"/>
  </g>
  <text x="28" y="36" fill="#475569" font-family="Georgia, serif" font-size="12" font-style="italic"> terraform to crossplane </text>
  <g filter="url(#sketch)" stroke-linecap="round" stroke-linejoin="round">
<rect x="88" y="104" width="124" height="72" rx="10" stroke="#64748b" stroke-width="1.6" fill="rgba(100,116,139,0.04)"/>
    <path d="M220 140 H264" stroke="#f59e0b" stroke-width="2"/>
    <polygon points="264,140 254,134 254,146" fill="#f59e0b"/>
    <rect x="284" y="92" width="144" height="96" rx="10" stroke="#22c55e" stroke-width="1.8" fill="rgba(34,197,94,0.07)"/>
    <path d="M436 140 H480" stroke="#22c55e" stroke-width="1.8"/>
    <polygon points="480,140 470,134 470,146" fill="#22c55e"/>
    <ellipse cx="556" cy="140" rx="44" ry="32" stroke="#3b82f6" stroke-width="1.8" fill="rgba(59,130,246,0.06)"/>
  </g>
  <g font-family="ui-monospace, SFMono-Regular, Menlo, monospace" fill="#ffffff">
    <text x="112" y="132" font-size="10" font-weight="500" opacity="1">Terraform</text>
    <text x="108" y="156" font-size="8" font-weight="500" opacity="0.88">state · plan</text>
    <text x="308" y="124" font-size="10" font-weight="500" opacity="1">Crossplane</text>
    <text x="304" y="148" font-size="8" font-weight="500" opacity="0.88">XRD · composition</text>
    <text x="232" y="124" font-size="9" font-weight="500" opacity="0.85">migrate</text>
    <text x="532" y="144" font-size="10" font-weight="500" opacity="1">K8s</text>
  </g>

  <text x="188" y="248" fill="#64748b" font-family="Georgia, serif" font-size="11" font-style="italic" opacity="0.5">CRDs in-cluster · GitOps native</text>
</svg>
