<svg xmlns="http://www.w3.org/2000/svg" viewBox="0 0 720 280" fill="none">
  <defs>
    <filter id="sketch" x="-2%" y="-2%" width="104%" height="104%">
      <feTurbulence type="fractalNoise" baseFrequency="0.018" numOctaves="2" seed="13" result="n"/>
      <feDisplacementMap in="SourceGraphic" in2="n" scale="0.9" xChannelSelector="R" yChannelSelector="G"/>
    </filter>
  </defs>
  <rect width="720" height="280" rx="16" fill="#0b0b10"/>
  <rect x="0.5" y="0.5" width="719" height="279" rx="15.5" stroke="rgba(255,255,255,0.06)"/>
  <g opacity="0.18" fill="#64748b">
    <circle cx="32" cy="28" r="0.8"/><circle cx="56" cy="28" r="0.8"/><circle cx="80" cy="28" r="0.8"/>
    <circle cx="640" cy="252" r="0.8"/><circle cx="664" cy="252" r="0.8"/><circle cx="688" cy="252" r="0.8"/>
  </g>
  <text x="28" y="36" fill="#475569" font-family="Georgia, serif" font-size="12" font-style="italic"> per-tenant throttling </text>
  <g filter="url(#sketch)" stroke-linecap="round" stroke-linejoin="round">
<ellipse cx="124" cy="128" rx="48" ry="32" stroke="#64748b" stroke-width="1.6" fill="rgba(100,116,139,0.04)"/>
    <path d="M176 128 H220" stroke="#64748b" stroke-width="1.6" opacity="0.55"/>
    <polygon points="220,128 210,122 210,134" fill="#64748b" opacity="0.55"/>
    <rect x="240" y="92" width="156" height="72" rx="10" stroke="#3b82f6" stroke-width="1.8" fill="rgba(59,130,246,0.07)"/>
    <path d="M404 128 H448" stroke="#3b82f6" stroke-width="1.8"/>
    <polygon points="448,128 438,122 438,134" fill="#3b82f6"/>
    <rect x="468" y="104" width="96" height="48" rx="8" stroke="#22c55e" stroke-width="1.8" fill="rgba(34,197,94,0.06)"/>
    <path d="M318 168 Q338 196 358 168 Q378 140 398 168" stroke="#ef4444" stroke-width="1.4" opacity="0.45" fill="none"/>
  </g>
  <g font-family="ui-monospace, SFMono-Regular, Menlo, monospace" fill="#ffffff">
    <text x="96" y="132" font-size="10" font-weight="500" opacity="1">Client</text>
    <text x="276" y="118" font-size="10" font-weight="500" opacity="1">API Gateway</text>
    <text x="276" y="144" font-size="8" font-weight="500" opacity="0.88">usage plan · key</text>
    <text x="488" y="132" font-size="10" font-weight="500" opacity="1">EKS svc</text>
    <text x="292" y="204" font-size="9" font-weight="500" opacity="0.85">429 rate limit</text>
  </g>

  <text x="188" y="248" fill="#64748b" font-family="Georgia, serif" font-size="11" font-style="italic" opacity="0.5">fair share · burst caps · tenant keys</text>
</svg>
