<svg xmlns="http://www.w3.org/2000/svg" viewBox="0 0 720 280" fill="none">
  <defs>
    <filter id="sketch" x="-2%" y="-2%" width="104%" height="104%">
      <feTurbulence type="fractalNoise" baseFrequency="0.018" numOctaves="2" seed="7" result="n"/>
      <feDisplacementMap in="SourceGraphic" in2="n" scale="0.9" xChannelSelector="R" yChannelSelector="G"/>
    </filter>
  </defs>
  <rect width="720" height="280" rx="16" fill="#0b0b10"/>
  <rect x="0.5" y="0.5" width="719" height="279" rx="15.5" stroke="rgba(255,255,255,0.06)"/>
  <g opacity="0.18" fill="#64748b">
    <circle cx="32" cy="28" r="0.8"/><circle cx="56" cy="28" r="0.8"/><circle cx="80" cy="28" r="0.8"/>
    <circle cx="640" cy="252" r="0.8"/><circle cx="664" cy="252" r="0.8"/><circle cx="688" cy="252" r="0.8"/>
  </g>
  <text x="28" y="36" fill="#475569" font-family="Georgia, serif" font-size="12" font-style="italic"> karpenter provisioning </text>
  <g filter="url(#sketch)" stroke-linecap="round" stroke-linejoin="round">
<ellipse cx="108" cy="118" rx="44" ry="30" stroke="#64748b" stroke-width="1.6" fill="rgba(100,116,139,0.04)"/>
    <path d="M156 118 H200" stroke="#64748b" stroke-width="1.6" opacity="0.55"/>
    <polygon points="200,118 190,112 190,124" fill="#64748b" opacity="0.55"/>
    <rect x="220" y="92" width="84" height="52" rx="8" stroke="#3b82f6" stroke-width="1.8" fill="rgba(59,130,246,0.08)"/>
    <path d="M312 118 H356" stroke="#3b82f6" stroke-width="1.8"/>
    <polygon points="356,118 346,112 346,124" fill="#3b82f6"/>
    <rect x="376" y="86" width="88" height="64" rx="8" stroke="#8b5cf6" stroke-width="1.6" fill="rgba(139,92,246,0.06)"/>
    <path d="M472 118 H516" stroke="#8b5cf6" stroke-width="1.8"/>
    <polygon points="516,118 506,112 506,124" fill="#8b5cf6"/>
    <rect x="536" y="96" width="72" height="44" rx="6" stroke="#f59e0b" stroke-width="1.8" fill="rgba(245,158,11,0.06)"/>
    <path d="M140 188 Q360 172 580 184" stroke="#22c55e" stroke-width="1.3" opacity="0.25" stroke-dasharray="4 6"/>
    <path d="M608 148 Q628 188 588 208" stroke="#ec4899" stroke-width="1.4" opacity="0.35" fill="none"/>
  </g>
  <g font-family="ui-monospace, SFMono-Regular, Menlo, monospace" fill="#ffffff">
    <text x="82" y="122" font-size="9" font-weight="500" opacity="1">Pending pod</text>
    <text x="238" y="122" font-size="10" font-weight="500" opacity="1">Karpenter</text>
    <text x="396" y="122" font-size="10" font-weight="500" opacity="1">NodeClaim</text>
    <text x="558" y="122" font-size="10" font-weight="500" opacity="1">EC2</text>
    <text x="548" y="228" font-size="9" font-weight="500" opacity="0.82">Spot · SQS</text>
  </g>

  <text x="236" y="248" fill="#64748b" font-family="Georgia, serif" font-size="11" font-style="italic" opacity="0.5">seconds, not minutes</text>
</svg>
